<?xml version="1.0" encoding="UTF-8"?><svg xmlns="http://www.w3.org/2000/svg" viewBox="0 0 170.08 170.08"><defs><style>.d{fill:#976f33;}.e{fill:#b2292e;}.f{fill:#616262;}</style></defs><g id="a"/><g id="b"><g id="c"><g><path class="f" d="M4.72,156.72c-.41,.07-.83,.1-1.25,.1-.57,0-1.07-.08-1.5-.24-.43-.16-.8-.39-1.09-.68-.29-.29-.51-.64-.66-1.04-.15-.4-.22-.84-.22-1.31,0-.45,.07-.87,.21-1.27,.14-.4,.35-.75,.63-1.04,.28-.3,.63-.54,1.04-.71,.42-.17,.9-.26,1.46-.26,.33,0,.64,.04,.93,.11,.3,.07,.56,.18,.79,.32,.23,.14,.42,.33,.56,.55,.14,.23,.23,.49,.26,.81h-.98c-.07-.39-.25-.67-.53-.86-.28-.18-.64-.28-1.08-.28s-.76,.07-1.06,.22c-.29,.15-.53,.35-.71,.59s-.32,.52-.4,.83c-.08,.31-.13,.62-.13,.94,0,.35,.05,.68,.14,1,.09,.32,.24,.61,.44,.85,.2,.24,.46,.44,.77,.59,.32,.15,.69,.22,1.14,.22,.26,0,.52-.02,.77-.05,.26-.03,.51-.08,.77-.15v-1.89h-1.73v-.61h2.64v2.99c-.41,.1-.82,.18-1.23,.25"/><polygon class="f" points="11.94 156.75 11.94 150.4 16.42 150.4 16.42 151.05 12.87 151.05 12.87 153.15 16.27 153.15 16.27 153.79 12.87 153.79 12.87 156.11 16.56 156.11 16.56 156.75 11.94 156.75"/><polygon class="f" points="26.61 156.75 23.02 151.25 23.02 156.75 22.18 156.75 22.18 150.4 23.44 150.4 27.03 155.93 27.03 150.4 27.87 150.4 27.87 156.75 26.61 156.75"/><polygon class="f" points="34 156.75 34 150.4 38.48 150.4 38.48 151.05 34.93 151.05 34.93 153.15 38.33 153.15 38.33 153.79 34.93 153.79 34.93 156.11 38.62 156.11 38.62 156.75 34 156.75"/><path class="f" d="M48.29,152.07c0-.22-.05-.4-.14-.54-.1-.14-.23-.24-.39-.31-.16-.07-.34-.12-.54-.15-.2-.02-.4-.04-.61-.04h-1.43v2.16h1.17c.23,0,.46-.01,.69-.03,.23-.02,.44-.08,.63-.15,.19-.08,.34-.19,.46-.34,.12-.15,.18-.35,.18-.6m.09,4.68c-.11-.25-.19-.51-.21-.77-.03-.26-.05-.53-.08-.79-.03-.23-.06-.44-.09-.61-.03-.17-.09-.32-.18-.43-.09-.11-.22-.2-.39-.25-.17-.06-.41-.08-.71-.08h-1.54v2.94h-.93v-6.35h2.58c.29,0,.59,.02,.88,.07,.29,.05,.55,.13,.78,.25,.23,.12,.42,.28,.56,.48,.14,.2,.21,.46,.21,.77,0,.42-.13,.75-.39,.99-.26,.24-.61,.41-1.05,.51,.23,.05,.41,.11,.57,.18,.15,.08,.27,.17,.37,.28,.09,.11,.16,.24,.2,.38,.04,.14,.07,.3,.1,.47,.03,.21,.05,.43,.06,.65,.01,.22,.05,.46,.1,.7,.03,.12,.06,.23,.09,.33,.03,.11,.08,.2,.15,.28h-1.06Z"/><path class="f" d="M57.61,151.13l-1.45,3.33h2.95l-1.5-3.33Zm2.54,5.63l-.75-1.68h-3.5l-.74,1.68h-.95l2.94-6.35h1.03l3.05,6.35h-1.08Z"/><polygon class="f" points="66.42 156.75 66.42 150.4 67.35 150.4 67.35 156.11 70.9 156.11 70.9 156.75 66.42 156.75"/><path class="f" d="M87.24,152.17c0-.24-.05-.43-.14-.58-.09-.15-.22-.26-.38-.34-.16-.08-.34-.14-.55-.17-.21-.03-.43-.04-.66-.04h-1.26v2.36h.99c.25,0,.5-.01,.74-.04,.24-.03,.45-.08,.64-.17,.18-.09,.33-.21,.44-.37,.11-.16,.17-.38,.17-.65m.98,.06c0,.39-.12,.72-.35,1.01-.23,.29-.56,.5-.98,.63-.19,.07-.4,.11-.63,.13-.22,.02-.45,.04-.69,.04h-1.33v2.71h-.93v-6.35h2.23c.31,0,.62,.02,.93,.04,.31,.03,.6,.12,.87,.27,.3,.17,.52,.39,.66,.66,.14,.27,.21,.55,.21,.85"/><polygon class="f" points="93.69 156.75 93.69 150.4 98.16 150.4 98.16 151.05 94.62 151.05 94.62 153.15 98.01 153.15 98.01 153.79 94.62 153.79 94.62 156.11 98.31 156.11 98.31 156.75 93.69 156.75"/><polygon class="f" points="108.35 156.75 104.77 151.25 104.77 156.75 103.93 156.75 103.93 150.4 105.18 150.4 108.78 155.93 108.78 150.4 109.62 150.4 109.62 156.75 108.35 156.75"/><path class="f" d="M120.57,154.98c0,.33-.08,.62-.24,.86-.16,.24-.37,.43-.62,.58-.25,.15-.54,.26-.87,.32-.33,.07-.65,.1-.98,.1s-.66-.03-.95-.1c-.3-.06-.56-.17-.79-.31-.23-.14-.42-.33-.56-.55-.14-.23-.23-.5-.26-.83h.97c.01,.2,.06,.38,.15,.52,.09,.14,.21,.26,.36,.36,.15,.09,.31,.16,.5,.2,.19,.05,.39,.07,.61,.07,.2,0,.4-.02,.6-.06,.2-.04,.39-.11,.55-.2,.17-.09,.3-.21,.41-.35,.1-.14,.15-.31,.15-.52,0-.16-.04-.31-.12-.43-.08-.12-.18-.22-.32-.31-.13-.09-.28-.16-.46-.22-.17-.06-.35-.12-.54-.17l-.62-.17c-.26-.07-.51-.15-.76-.23-.25-.08-.47-.19-.66-.32-.19-.13-.35-.29-.47-.48-.12-.19-.18-.42-.18-.69,0-.32,.07-.58,.22-.8,.15-.22,.34-.4,.58-.54,.24-.14,.51-.24,.82-.31,.3-.07,.61-.1,.93-.1s.59,.03,.87,.08c.28,.05,.54,.14,.76,.27,.22,.13,.4,.29,.54,.5,.14,.2,.21,.46,.21,.76h-.95c-.02-.18-.07-.34-.15-.46-.08-.13-.19-.23-.31-.31-.13-.08-.28-.14-.44-.17-.17-.03-.34-.05-.53-.05s-.38,.02-.57,.06c-.19,.04-.36,.1-.51,.18-.15,.09-.27,.2-.36,.33-.09,.14-.14,.3-.14,.48,0,.14,.04,.27,.12,.37,.08,.11,.18,.2,.3,.28,.12,.08,.25,.15,.4,.2,.15,.05,.29,.1,.42,.14l.82,.24c.26,.08,.51,.16,.76,.24,.25,.08,.47,.19,.66,.32,.19,.13,.35,.29,.47,.48,.12,.19,.18,.43,.18,.72"/><rect class="f" x="126.25" y="150.41" width=".93" height="6.35"/><path class="f" d="M138.38,153.56c0-.33-.04-.65-.11-.96-.07-.31-.2-.59-.37-.84-.18-.25-.41-.45-.71-.6-.29-.15-.66-.23-1.09-.23s-.77,.08-1.07,.23c-.29,.16-.52,.36-.7,.61-.18,.25-.31,.53-.39,.84-.08,.31-.11,.63-.11,.94s.04,.64,.11,.96c.07,.32,.2,.6,.38,.85,.18,.25,.41,.45,.7,.61,.29,.15,.65,.23,1.07,.23s.79-.08,1.08-.23c.29-.15,.52-.36,.7-.61,.18-.25,.31-.54,.39-.85,.07-.32,.11-.63,.11-.96m.99-.03c0,.46-.06,.89-.19,1.29-.13,.4-.32,.76-.59,1.06-.27,.3-.61,.54-1.02,.72-.41,.17-.9,.26-1.47,.26s-1.05-.09-1.46-.26c-.41-.17-.75-.4-1.01-.7-.27-.3-.46-.65-.59-1.04-.13-.4-.19-.82-.19-1.28s.06-.87,.19-1.27,.33-.75,.6-1.05c.27-.3,.61-.54,1.02-.72,.41-.17,.9-.26,1.46-.26s1.07,.08,1.47,.25c.41,.17,.75,.39,1.01,.68,.27,.29,.46,.63,.58,1.03,.12,.4,.19,.83,.19,1.29"/><polygon class="f" points="149.45 156.75 145.86 151.25 145.86 156.75 145.02 156.75 145.02 150.4 146.28 150.4 149.87 155.93 149.87 150.4 150.71 150.4 150.71 156.75 149.45 156.75"/><path class="f" d="M167.85,153.67h-1.24c-.23,0-.48,.01-.74,.03-.26,.02-.5,.07-.72,.15-.22,.08-.4,.2-.55,.36-.15,.16-.22,.38-.22,.66s.08,.52,.24,.69,.37,.29,.61,.37c.24,.08,.5,.13,.78,.15,.28,.02,.54,.03,.78,.03h1.06v-2.44Zm.89,0v3.09h-2.49c-.32,0-.65-.02-.98-.07-.34-.05-.64-.14-.92-.27-.27-.13-.5-.31-.67-.54-.17-.23-.26-.53-.26-.9,0-.24,.04-.45,.13-.64,.09-.19,.2-.35,.35-.48,.15-.13,.33-.24,.54-.32,.21-.08,.43-.15,.68-.19-.16-.03-.32-.07-.48-.13-.16-.05-.31-.14-.44-.25-.13-.11-.24-.25-.32-.42-.08-.17-.13-.38-.13-.63,0-.29,.08-.54,.23-.74s.34-.38,.57-.51c.23-.13,.49-.23,.77-.29,.28-.06,.56-.09,.82-.09,.22,0,.44,.01,.67,.03,.22,.02,.45,.05,.66,.08v.68c-.19-.05-.39-.08-.58-.11-.19-.03-.39-.05-.58-.05s-.39,.02-.58,.05c-.19,.04-.37,.1-.53,.18-.16,.08-.28,.2-.38,.34-.1,.14-.15,.32-.15,.53,0,.24,.07,.43,.2,.57,.13,.14,.29,.25,.49,.32,.2,.07,.41,.12,.64,.15,.23,.02,.45,.04,.65,.04h1.21v-1.38h.89v1.38h1.31v.59h-1.31Z"/><path class="f" d="M5.38,168.16c0,.34-.08,.63-.25,.87-.16,.24-.38,.44-.63,.59-.26,.15-.55,.26-.89,.33-.33,.07-.67,.1-1,.1s-.67-.03-.97-.1c-.3-.06-.57-.17-.81-.32-.24-.15-.43-.33-.57-.56-.15-.23-.23-.51-.26-.85H.99c.01,.21,.07,.39,.16,.53,.09,.15,.21,.27,.36,.36,.15,.1,.32,.17,.51,.21,.19,.05,.4,.07,.62,.07,.2,0,.41-.02,.62-.06,.21-.04,.4-.11,.57-.2,.17-.09,.31-.21,.41-.35,.1-.14,.16-.32,.16-.53,0-.17-.04-.31-.12-.43-.08-.12-.19-.23-.32-.32-.13-.09-.29-.17-.46-.23-.18-.06-.36-.12-.55-.18l-.63-.17c-.26-.07-.53-.15-.78-.24-.25-.09-.48-.19-.67-.33-.2-.13-.35-.29-.47-.48-.12-.19-.18-.43-.18-.71,0-.32,.07-.59,.22-.82,.15-.22,.35-.41,.59-.55,.24-.14,.52-.25,.83-.31,.31-.07,.62-.1,.94-.1s.6,.03,.89,.08c.29,.05,.55,.15,.77,.27,.22,.13,.41,.3,.55,.51,.14,.21,.21,.47,.22,.78h-.97c-.02-.19-.07-.34-.15-.47-.08-.13-.19-.23-.32-.32-.13-.08-.28-.14-.45-.17-.17-.03-.35-.05-.54-.05s-.38,.02-.58,.06c-.19,.04-.37,.1-.52,.19-.15,.09-.28,.2-.37,.33-.09,.14-.14,.3-.14,.49,0,.14,.04,.27,.12,.38,.08,.11,.18,.21,.3,.29,.12,.08,.26,.15,.41,.21,.15,.06,.29,.1,.43,.15l.84,.24c.26,.08,.52,.16,.77,.25,.25,.09,.48,.2,.67,.33,.2,.13,.36,.29,.48,.49,.12,.2,.18,.44,.18,.73"/><path class="f" d="M12.92,166.71c0-.33-.04-.66-.11-.98-.08-.32-.2-.6-.38-.85-.18-.25-.42-.45-.72-.61-.3-.16-.67-.23-1.11-.23s-.79,.08-1.09,.24c-.3,.16-.53,.36-.72,.62-.18,.25-.31,.54-.39,.86-.08,.32-.12,.64-.12,.96s.04,.65,.12,.98c.08,.32,.21,.61,.39,.87,.18,.26,.42,.46,.71,.62,.29,.16,.66,.24,1.1,.24s.8-.08,1.1-.24c.3-.16,.54-.37,.72-.62,.18-.26,.31-.55,.39-.87,.08-.32,.12-.65,.12-.98m1.01-.03c0,.47-.07,.91-.19,1.32-.13,.41-.33,.77-.6,1.08-.27,.31-.62,.55-1.04,.73-.42,.18-.92,.27-1.5,.27s-1.07-.09-1.49-.26c-.42-.17-.76-.41-1.04-.72-.27-.3-.47-.66-.6-1.07-.13-.41-.19-.84-.19-1.31s.07-.88,.2-1.29c.13-.41,.34-.77,.61-1.07,.28-.31,.62-.55,1.04-.73,.42-.18,.91-.27,1.48-.27s1.09,.09,1.5,.26c.42,.17,.76,.4,1.04,.7,.27,.3,.47,.65,.6,1.05,.13,.41,.19,.84,.19,1.31"/><path class="f" d="M21.41,169.09c-.16,.23-.35,.42-.59,.56-.24,.14-.51,.25-.82,.31-.31,.07-.63,.1-.98,.1-.57,0-1.06-.08-1.47-.26-.41-.17-.74-.4-1-.7-.26-.29-.45-.64-.58-1.04-.12-.4-.18-.82-.18-1.28s.07-.87,.21-1.27c.13-.41,.34-.77,.61-1.09,.27-.32,.62-.57,1.03-.75,.41-.19,.9-.28,1.45-.28,.31,0,.61,.03,.91,.1,.3,.07,.58,.18,.82,.32,.24,.15,.44,.33,.6,.55,.15,.22,.24,.49,.25,.79h-1.01c-.02-.18-.08-.35-.17-.48-.1-.14-.22-.25-.36-.34-.14-.09-.3-.15-.48-.2-.18-.04-.37-.06-.57-.06-.41,0-.76,.08-1.06,.24-.29,.16-.52,.37-.7,.63-.18,.26-.31,.54-.39,.86s-.12,.63-.12,.94,.04,.63,.11,.94c.07,.31,.2,.59,.37,.84,.17,.25,.4,.45,.69,.6,.29,.16,.64,.23,1.07,.23,.48,0,.86-.1,1.16-.32,.3-.21,.46-.49,.48-.83h1.03c-.05,.34-.15,.63-.31,.86"/><rect class="f" x="24.04" y="163.49" width=".95" height="6.47"/><path class="f" d="M30.34,164.23l-1.48,3.4h3.01l-1.53-3.4Zm2.59,5.74l-.77-1.71h-3.57l-.75,1.71h-.97l3-6.47h1.05l3.11,6.47h-1.1Z"/><polygon class="f" points="35.91 169.96 35.91 163.49 36.85 163.49 36.85 169.31 40.47 169.31 40.47 169.96 35.91 169.96"/><path class="f" d="M51.23,168.16c0,.34-.08,.63-.25,.87-.16,.24-.38,.44-.63,.59-.26,.15-.55,.26-.89,.33-.33,.07-.67,.1-1,.1s-.67-.03-.97-.1c-.3-.06-.57-.17-.8-.32-.24-.15-.43-.33-.57-.56-.15-.23-.23-.51-.26-.85h.99c.01,.21,.07,.39,.16,.53,.09,.15,.21,.27,.36,.36,.15,.1,.32,.17,.51,.21,.19,.05,.4,.07,.62,.07,.2,0,.41-.02,.62-.06,.21-.04,.4-.11,.57-.2,.17-.09,.31-.21,.41-.35,.1-.14,.16-.32,.16-.53,0-.17-.04-.31-.12-.43-.08-.12-.19-.23-.32-.32-.13-.09-.29-.17-.46-.23-.18-.06-.36-.12-.55-.18l-.63-.17c-.26-.07-.52-.15-.78-.24-.25-.09-.48-.19-.67-.33-.2-.13-.35-.29-.47-.48-.12-.19-.18-.43-.18-.71,0-.32,.07-.59,.22-.82,.15-.22,.35-.41,.59-.55,.24-.14,.52-.25,.83-.31,.31-.07,.62-.1,.94-.1s.6,.03,.89,.08c.29,.05,.55,.15,.77,.27,.22,.13,.41,.3,.55,.51,.14,.21,.21,.47,.22,.78h-.97c-.02-.19-.07-.34-.15-.47-.08-.13-.19-.23-.32-.32-.13-.08-.29-.14-.46-.17-.17-.03-.35-.05-.54-.05s-.38,.02-.58,.06c-.19,.04-.37,.1-.52,.19-.15,.09-.28,.2-.37,.33-.09,.14-.14,.3-.14,.49,0,.14,.04,.27,.12,.38s.18,.21,.3,.29c.12,.08,.26,.15,.41,.21,.15,.06,.29,.1,.43,.15l.84,.24c.27,.08,.52,.16,.77,.25,.25,.09,.48,.2,.67,.33,.2,.13,.36,.29,.48,.49,.12,.2,.18,.44,.18,.73"/><polygon class="f" points="53.6 169.96 53.6 163.49 58.17 163.49 58.17 164.15 54.55 164.15 54.55 166.29 58.02 166.29 58.02 166.95 54.55 166.95 54.55 169.31 58.31 169.31 58.31 169.96 53.6 169.96"/><path class="f" d="M65.76,169.09c-.16,.23-.35,.42-.59,.56-.24,.14-.51,.25-.82,.31-.31,.07-.63,.1-.98,.1-.57,0-1.06-.08-1.47-.26-.41-.17-.74-.4-1-.7-.26-.29-.45-.64-.58-1.04-.12-.4-.18-.82-.18-1.28s.07-.87,.21-1.27c.13-.41,.34-.77,.61-1.09,.27-.32,.61-.57,1.03-.75,.41-.19,.9-.28,1.45-.28,.31,0,.61,.03,.91,.1,.3,.07,.58,.18,.82,.32,.24,.15,.44,.33,.6,.55,.15,.22,.24,.49,.25,.79h-1.01c-.02-.18-.08-.35-.17-.48-.1-.14-.22-.25-.36-.34-.14-.09-.3-.15-.48-.2-.18-.04-.37-.06-.57-.06-.41,0-.76,.08-1.06,.24-.29,.16-.52,.37-.7,.63-.18,.26-.31,.54-.39,.86s-.12,.63-.12,.94,.04,.63,.11,.94c.07,.31,.2,.59,.37,.84,.17,.25,.4,.45,.69,.6,.29,.16,.64,.23,1.07,.23,.47,0,.86-.1,1.16-.32,.3-.21,.46-.49,.48-.83h1.03c-.05,.34-.15,.63-.31,.86"/><path class="f" d="M73.45,169.41c-.51,.44-1.24,.67-2.19,.67s-1.72-.21-2.22-.64c-.49-.42-.74-1.08-.74-1.97v-3.98h1v3.87c0,.23,.01,.46,.04,.7,.03,.23,.11,.45,.26,.65,.18,.24,.42,.42,.72,.53,.3,.11,.62,.17,.94,.17,.38,0,.74-.07,1.07-.22,.33-.15,.57-.38,.73-.71,.09-.18,.14-.36,.16-.56,.02-.19,.03-.39,.03-.58v-3.85h.97v4c0,.84-.26,1.48-.76,1.92"/><path class="f" d="M81.07,165.19c0-.23-.05-.41-.15-.55-.1-.14-.23-.24-.39-.32-.16-.07-.35-.12-.55-.15-.2-.02-.41-.04-.62-.04h-1.46v2.2h1.2c.23,0,.47-.01,.7-.04,.24-.03,.45-.08,.64-.16,.19-.08,.35-.2,.46-.35,.12-.15,.18-.35,.18-.61m.09,4.77c-.12-.25-.19-.52-.22-.79-.03-.27-.05-.54-.08-.81-.03-.24-.06-.45-.09-.62-.03-.18-.09-.32-.18-.44-.09-.12-.23-.2-.4-.26-.18-.06-.42-.08-.73-.08h-1.57v3h-.95v-6.47h2.63c.3,0,.6,.02,.89,.07,.3,.05,.56,.13,.79,.25,.24,.12,.43,.28,.57,.49,.15,.21,.22,.47,.22,.78,0,.43-.13,.77-.4,1.01-.26,.24-.62,.42-1.07,.53,.23,.05,.42,.11,.58,.19,.15,.08,.28,.17,.37,.29,.09,.11,.16,.24,.21,.39,.04,.15,.08,.3,.1,.48,.03,.21,.05,.43,.06,.66,.01,.23,.05,.46,.1,.71,.03,.12,.06,.23,.09,.34,.03,.11,.09,.2,.15,.28h-1.08Z"/><rect class="f" x="84.64" y="163.49" width=".95" height="6.47"/><polygon class="f" points="90.79 164.16 90.79 169.96 89.84 169.96 89.84 164.16 87.5 164.16 87.5 163.49 93.14 163.49 93.14 164.16 90.79 164.16"/><polygon class="f" points="97.75 167.29 97.75 169.96 96.8 169.96 96.8 167.25 93.96 163.49 95.09 163.49 97.33 166.57 99.53 163.49 100.59 163.49 97.75 167.29"/><path class="f" d="M108.64,164.23l-1.48,3.4h3.01l-1.53-3.4Zm2.59,5.74l-.77-1.71h-3.57l-.76,1.71h-.97l3-6.47h1.05l3.11,6.47h-1.1Z"/><path class="f" d="M119.09,169.41c-.51,.44-1.24,.67-2.19,.67s-1.72-.21-2.22-.64c-.49-.42-.74-1.08-.74-1.97v-3.98h1v3.87c0,.23,.01,.46,.04,.7,.03,.23,.12,.45,.26,.65,.18,.24,.42,.42,.72,.53,.3,.11,.62,.17,.94,.17,.38,0,.74-.07,1.07-.22,.33-.15,.57-.38,.73-.71,.09-.18,.14-.36,.16-.56,.02-.19,.03-.39,.03-.58v-3.85h.97v4c0,.84-.26,1.48-.76,1.92"/><polygon class="f" points="124.96 164.16 124.96 169.96 124.01 169.96 124.01 164.16 121.66 164.16 121.66 163.49 127.31 163.49 127.31 164.16 124.96 164.16"/><polygon class="f" points="133.98 169.96 133.98 166.97 130.15 166.97 130.15 169.96 129.21 169.96 129.21 163.49 130.15 163.49 130.15 166.31 133.98 166.31 133.98 163.49 134.92 163.49 134.92 169.96 133.98 169.96"/><path class="f" d="M142.93,166.71c0-.33-.04-.66-.11-.98-.07-.32-.2-.6-.38-.85-.18-.25-.42-.45-.72-.61-.3-.16-.67-.23-1.11-.23s-.79,.08-1.09,.24c-.3,.16-.53,.36-.72,.62-.18,.25-.31,.54-.39,.86-.08,.32-.12,.64-.12,.96s.04,.65,.12,.98c.08,.32,.21,.61,.39,.87,.18,.26,.42,.46,.71,.62,.3,.16,.66,.24,1.1,.24s.8-.08,1.1-.24c.3-.16,.54-.37,.72-.62,.18-.26,.31-.55,.39-.87,.08-.32,.12-.65,.12-.98m1.01-.03c0,.47-.07,.91-.19,1.32-.13,.41-.33,.77-.6,1.08-.27,.31-.62,.55-1.04,.73-.42,.18-.92,.27-1.5,.27s-1.08-.09-1.49-.26c-.42-.17-.76-.41-1.04-.72-.27-.3-.47-.66-.6-1.07-.13-.41-.19-.84-.19-1.31s.07-.88,.2-1.29c.13-.41,.34-.77,.61-1.07,.28-.31,.62-.55,1.04-.73,.42-.18,.91-.27,1.48-.27s1.09,.09,1.5,.26c.42,.17,.76,.4,1.04,.7,.27,.3,.47,.65,.6,1.05,.13,.41,.19,.84,.19,1.31"/><path class="f" d="M150.41,165.19c0-.23-.05-.41-.15-.55-.1-.14-.23-.24-.39-.32-.16-.07-.35-.12-.55-.15-.2-.02-.41-.04-.62-.04h-1.46v2.2h1.2c.23,0,.47-.01,.7-.04,.24-.03,.45-.08,.64-.16,.19-.08,.35-.2,.46-.35,.12-.15,.18-.35,.18-.61m.09,4.77c-.12-.25-.19-.52-.22-.79-.03-.27-.05-.54-.08-.81-.03-.24-.06-.45-.09-.62-.03-.18-.09-.32-.18-.44-.09-.12-.23-.2-.4-.26-.18-.06-.42-.08-.73-.08h-1.57v3h-.95v-6.47h2.63c.3,0,.6,.02,.89,.07,.3,.05,.56,.13,.79,.25,.23,.12,.43,.28,.57,.49,.15,.21,.22,.47,.22,.78,0,.43-.13,.77-.4,1.01-.27,.24-.62,.42-1.07,.53,.23,.05,.42,.11,.58,.19,.15,.08,.28,.17,.37,.29,.09,.11,.16,.24,.21,.39,.04,.15,.08,.3,.1,.48,.03,.21,.05,.43,.06,.66,.01,.23,.05,.46,.1,.71,.03,.12,.06,.23,.09,.34,.03,.11,.08,.2,.15,.28h-1.08Z"/><rect class="f" x="153.98" y="163.49" width=".95" height="6.47"/><polygon class="f" points="160.12 164.16 160.12 169.96 159.17 169.96 159.17 164.16 156.83 164.16 156.83 163.49 162.48 163.49 162.48 164.16 160.12 164.16"/><polygon class="f" points="167.09 167.29 167.09 169.96 166.14 169.96 166.14 167.25 163.29 163.49 164.43 163.49 166.66 166.57 168.87 163.49 169.93 163.49 167.09 167.29"/><rect class="d" x="38.51" y="34.21" width="6.42" height="31.36"/><rect class="d" x="86.65" y="51.32" width="6.42" height="8.55"/><rect class="d" x="28.88" y="51.32" width="6.42" height="8.55"/><rect class="d" x="0" y="51.32" width="6.42" height="8.55"/><rect class="d" x="77.02" y="51.32" width="6.42" height="8.55"/><rect class="d" x="67.39" y="51.32" width="6.42" height="8.55"/><rect class="d" x="123.29" y="136.87" width="6.42" height="5.7"/><rect class="e" x="72.2" y="102.64" width="6.42" height="5.7"/><rect class="e" x="62.58" y="102.64" width="6.42" height="5.7"/><rect class="e" x="110.71" y="34.21" width="6.42" height="5.7"/><rect class="e" x="120.34" y="34.21" width="6.42" height="5.7"/><rect class="d" x="77.02" y="42.78" width="6.42" height="5.7"/><rect class="d" x="67.39" y="42.78" width="6.42" height="5.7"/><rect class="d" x="19.26" y="42.78" width="6.42" height="5.7"/><rect class="d" x="9.63" y="42.78" width="6.42" height="5.7"/><rect class="d" x="86.64" y="42.78" width="6.42" height="5.7"/><rect class="d" x="38.51" y="59.87" width="54.55" height="5.7"/><rect class="d" x="0" y="59.87" width="35.3" height="5.7"/><polygon class="e" points="102.69 72.45 99.48 72.45 99.48 70.57 102.69 70.57 102.69 68.66 96.27 68.66 96.27 74.36 102.69 74.36 102.69 72.45"/><path class="e" d="M86.65,94.09h-3.21v-2.85h3.21v2.85Zm6.42-8.56h-16.04v2.86h0v5.7h-3.21v-8.55h-6.42v8.55h-3.21v-8.55h-6.42v8.55h-12.84v-25.79h-6.42v31.36h0v.13h54.55v-11.4h0v-2.86Z"/><rect class="e" x="144.41" y="68.43" width="6.42" height="31.36"/><path class="e" d="M160.45,82.68h3.21v2.85h-3.21v-2.85Zm3.21-5.7h-9.63v14.26h9.63v2.85h-9.63v5.7h16.05v-22.81h-6.42Z"/><polygon class="e" points="134.78 94.09 121.94 94.09 121.94 85.53 115.53 85.53 115.53 94.09 112.32 94.09 102.69 94.09 102.69 76.98 96.27 76.98 96.27 99.79 141.2 99.79 141.2 68.43 134.78 68.43 134.78 94.09"/><rect class="e" x="120.34" y="76.98" width="6.42" height="5.7"/><rect class="e" x="110.71" y="76.98" width="6.42" height="5.7"/><rect class="e" x="57.76" y="76.98" width="6.42" height="5.7"/><polygon class="e" points="28.88 94.08 6.42 94.08 6.42 85.53 0 85.53 0 94.08 0 94.08 0 99.78 35.3 99.78 35.3 94.08 35.3 85.53 28.88 85.53 28.88 94.08"/><rect class="e" x="19.26" y="76.98" width="6.42" height="5.7"/><rect class="e" x="9.63" y="76.98" width="6.42" height="5.7"/><rect class="d" x="14.44" y="136.87" width="6.42" height="5.7"/><rect class="d" x="23.96" y="136.87" width="6.42" height="5.7"/><path class="d" d="M83.44,125.45h3.21v2.86h-3.21v-2.86Zm57.76-5.7h-25.67v5.7h19.25v2.86h-22.46v-8.55h-6.42v8.55h-12.84v-8.55h-16.04v8.55h-22.46v-25.6h-6.42v31.36h6.42v-.06h86.64v-14.26h0Z"/><path class="d" d="M9.63,128.3h-3.21v-2.98h3.21v2.98Zm19.25-12.73h0v12.73h-3.21v-8.61h-6.42v8.61h-3.21v-8.68H0v8.72h0v5.7H19.26v.02h6.42v-.06h19.25v-5.7h-9.63v-11.4h3.21v3.36h6.42v-3.36h0v-5.7H28.88v4.37Z"/><rect class="d" x="163.66" y="102.64" width="6.42" height="31.36"/><path class="d" d="M150.82,125.45h3.21v2.85h-3.21v-2.85Zm3.21-5.7h-3.21v-17.11h-6.42v31.36h16.05v-31.36h-6.42v17.11Z"/><rect class="d" x="110.71" y="111.19" width="6.42" height="5.7"/><rect class="d" x="101.09" y="111.19" width="6.42" height="5.7"/><rect class="d" x="0" y="111.15" width="6.42" height="5.7"/><rect class="d" x="9.63" y="111.15" width="6.42" height="5.7"/><rect class="e" x="0" y="136.87" width="11.35" height="5.7"/><rect class="e" x="33.47" y="136.87" width="86.72" height="5.7"/><rect class="e" x="132.8" y="136.87" width="37.28" height="5.7"/><path class="d" d="M144.41,59.87h-3.21v-2.85h3.21v2.85Zm19.25-25.66v25.66h-3.21v-25.66h-6.42v25.66h-3.21v-8.55h-16.04v8.55h-17.65v-11.39h3.21v2.85h6.42v-2.85h0v-5.7h-16.04v4.79h0v12.3h-8.02v-25.66h-6.42v31.36h73.81v-31.36h-6.42Z"/><rect class="e" x="163.66" y="0" width="6.42" height="31.36"/><rect class="e" x="77.02" y="0" width="6.42" height="31.36"/><polygon class="e" points="67.39 25.66 54.55 25.66 54.55 14.25 57.76 14.25 57.76 16.94 64.18 16.94 64.18 8.57 58.01 8.57 58.01 8.55 48.14 8.55 48.14 14.24 48.14 14.24 48.14 25.66 44.93 25.66 44.93 0 38.51 0 38.51 28.51 38.51 28.51 38.51 31.36 73.81 31.36 73.81 28.51 73.81 25.66 73.81 0 67.39 0 67.39 25.66"/><path class="e" d="M134.78,25.66h-3.21v-2.86h3.21v2.86Zm-38.51,0h-3.21v-2.86h3.21v2.86Zm57.76,0h-3.21V8.56h-25.67v5.7h19.25v11.4h-3.21v-8.55h-16.05v8.55h-3.21v-8.72h-6.42v8.72h-3.21v-8.72h-6.42v8.72h-3.21v-8.56h-16.04v14.26h73.81V0h-6.42V25.66Z"/><rect class="e" x="86.64" y="8.56" width="6.42" height="5.7"/><rect class="e" x="96.27" y="8.56" width="6.42" height="5.7"/><rect class="e" x="0" y="8.47" width="6.42" height="5.7"/><rect class="e" x="9.63" y="8.47" width="6.42" height="5.7"/><polygon class="e" points="112.32 12.26 109.11 12.26 109.11 10.38 112.32 10.38 112.32 8.47 105.9 8.47 105.9 14.17 112.32 14.17 112.32 12.26"/><path class="e" d="M28.88,25.64h-3.21v-2.82h3.21v2.82Zm-19.25,.03h-3.21v-3.02h3.21v3.02Zm25.67-8.55H19.26v8.55h-3.21v-8.72H0v10.45h0v3.97H25.68v-.03h3.21v.02h6.42v-8.55h0v-5.69Z"/></g></g></g></svg>